<?xml version="1.0" encoding="utf-8"?>
<!-- Generator: Adobe Illustrator 18.1.1, SVG Export Plug-In . SVG Version: 6.00 Build 0)  -->
<!DOCTYPE svg PUBLIC "-//W3C//DTD SVG 1.1//EN" "http://www.w3.org/Graphics/SVG/1.1/DTD/svg11.dtd">
<svg version="1.1" id="Layer_1" xmlns="http://www.w3.org/2000/svg" xmlns:xlink="http://www.w3.org/1999/xlink" x="0px" y="0px"
	 viewBox="0 0 576 576" enable-background="new 0 0 576 576" xml:space="preserve">
<path fill="#202020" d="M5.4,545.4l187.2-187.2c-32.4-37.8-51.3-87.3-51.3-140.4C141.3,97.2,238.5,0,358.2,0S576,97.2,576,217.8
	s-97.2,217.8-217.8,217.8c-53.1,0-102.6-19.8-140.4-51.3L30.6,571.5C27,574.2,22.5,576,18,576s-9-1.8-12.6-5.4
	C-1.8,563.4-1.8,552.6,5.4,545.4z M540,217.8C540,117.9,459,36,358.2,36s-181.8,81-181.8,181.8s81,181.8,181.8,181.8
	S540,317.7,540,217.8z"/>
</svg>
